<svg xmlns="http://www.w3.org/2000/svg" viewBox="0 0 24 24" fill="currentColor">
  <path d="M6.76 11.04l-.7 2.33H7.5l-.74-2.33zm8.38-2.63h.97v4.47h-.97v-.59c-.22.26-.48.46-.78.6-.3.13-.61.2-.94.2-.5 0-.92-.18-1.26-.54-.34-.36-.51-.85-.51-1.47 0-.63.17-1.13.51-1.48.34-.36.76-.54 1.26-.54.33 0 .64.07.93.2.29.14.55.33.76.58v-.59h.03zm-1.49 3.87c.3 0 .54-.1.73-.3.19-.2.29-.48.29-.84s-.1-.64-.29-.84c-.19-.2-.43-.3-.73-.3-.3 0-.55.1-.74.3-.19.2-.28.48-.28.84s.09.64.28.84c.19.2.44.3.74.3zm4.84-2.56c-.19-.14-.43-.21-.72-.21-.34 0-.63.12-.85.37-.23.25-.34.57-.34.98v2.02h-.98V9.27h.98v.62c.19-.26.4-.44.65-.56.25-.12.52-.18.82-.18.33 0 .64.08.93.23l-.49.84zM6.09 9.27l1.53 4.6h1.07l.62-1.87.62 1.87h1.07l1.53-4.6H11.4l-.97 2.94-.67-2.04h-.92l-.67 2.04-.97-2.94H6.09z"/>
  <path d="M18.42 16.27c-2.17 1.6-5.32 2.45-8.03 2.45-3.8 0-7.22-1.4-9.81-3.74-.2-.18-.02-.43.22-.29 2.79 1.62 6.24 2.6 9.81 2.6 2.41 0 5.05-.5 7.49-1.53.36-.16.67.24.32.51z"/>
  <path d="M19.34 15.22c-.28-.36-1.85-.17-2.55-.09-.21.03-.24-.16-.05-.29 1.25-.88 3.3-.63 3.54-.33.24.3-.06 2.37-1.24 3.36-.18.15-.35.07-.27-.13.26-.65.85-2.16.57-2.52z"/>
</svg>
