<svg xmlns="http://www.w3.org/2000/svg" viewBox="0 0 24 24" fill="currentColor">
  <path d="M16.51 15.59l.62-2.13c.09-.3.07-.58-.04-.8-.11-.22-.31-.38-.58-.45l-8.97-.77c-.04 0-.08-.02-.1-.06-.02-.04-.02-.08 0-.12.03-.05.08-.08.13-.09l9.07-.77c.88-.12 1.83-.88 2.14-1.74l.4-1.08c.04-.11.05-.21.02-.31-.49-2.14-2.4-3.73-4.68-3.73-2.08 0-3.86 1.31-4.54 3.15-.42-.32-.96-.51-1.53-.51-1.19 0-2.2.83-2.47 1.95-.03-.01-.06-.01-.09-.01-1.87 0-3.39 1.52-3.39 3.39 0 .15.01.3.03.44v.02c.02.1.1.18.21.18h13.7c.07 0 .12-.05.13-.11l.1-.35.04-.1zm4.37-.11c-.04 0-.08-.02-.1-.06-.02-.04-.02-.08 0-.12.03-.05.08-.08.13-.09l.91-.08c.88-.12 1.83-.88 2.14-1.74l.22-.59c.04-.11.05-.21.02-.31-.35-1.53-1.71-2.67-3.33-2.67-.44 0-.85.08-1.24.23-.03.01-.07.01-.1-.01-.03-.02-.05-.05-.05-.09l-.13-.56c-.3-1.12-1.18-2-2.29-2.3-.29-.08-.58-.12-.88-.12-1.48 0-2.77.98-3.19 2.4l-.07.24c-.02.08.03.15.11.17.08.01.15-.03.18-.11l.07-.22c.36-1.23 1.48-2.08 2.77-2.08.26 0 .51.03.76.1.96.26 1.73 1.02 2 1.99l.13.56c.03.13.17.2.29.15.36-.13.74-.2 1.14-.2 1.4 0 2.58.98 2.88 2.31-.12.72-1.04 1.37-1.77 1.44l-.91.08c-.21.02-.4.13-.51.3-.11.17-.13.38-.06.57l.14.47c.04.13.03.26-.02.38-.05.11-.14.21-.26.25-.04.01-.07.02-.11.02H16.6c-.08 0-.14.06-.14.14 0 .08.06.14.14.14h4.29c.23 0 .46-.07.65-.2.19-.13.34-.31.43-.52.09-.22.11-.45.05-.68l-.14-.47z"/>
</svg>
