<svg xmlns="http://www.w3.org/2000/svg" viewBox="0 0 24 24" fill="currentColor">
  <path d="M15.55 10.28l1.58-2.74.13-.44a8.7 8.7 0 0 0-14.7 3.5l.4-.03 3.16-.52s.16-.26.24-.25a5.53 5.53 0 0 1 9.19.48zm5.09 2.15a8.73 8.73 0 0 0-2.63-4.62l-2.6 2.6a5.24 5.24 0 0 1 1.93 4.15v.52c1.44 0 2.6 1.16 2.6 2.6 0 1.44-1.16 2.6-2.6 2.6H12.2l-.52.53v3.12l.52.52h5.14a5.77 5.77 0 0 0 3.3-10.42zM7.06 21.37h5.14v-3.16H7.06a2.57 2.57 0 0 1-1.07-.23l-.74.23-1.58 1.57-.18.54a5.74 5.74 0 0 0 3.57 1.05zm-3.3-8.42a5.77 5.77 0 0 0 3.3 10.58l2.82-2.82a2.6 2.6 0 1 1 3.41-3.41l2.82-2.82a5.77 5.77 0 0 0-10.02-.18l-.18.32z"/>
</svg>
