<svg xmlns="http://www.w3.org/2000/svg" viewBox="0 0 24 24" fill="currentColor">
  <path d="M20.22 4.14c-.55-.1-1.24-.14-2.07-.14-2.28 0-4.14.52-5.59 1.56-.34.23-.58.5-.75.8l-.1-.13c-.78-.96-1.98-1.44-3.62-1.44-2.55 0-4.8 1.05-6.77 3.16C.44 9 0 10.1 0 11.3c0 .96.29 1.74.87 2.33.58.59 1.33.89 2.25.89.97 0 1.83-.3 2.57-.9.21-.17.47-.43.78-.78.35.54.73.95 1.13 1.24.67.5 1.5.75 2.49.75.96 0 1.84-.2 2.62-.6.55-.3 1.06-.68 1.52-1.16l.09.1c.53.6 1.12 1.04 1.78 1.31.66.28 1.41.42 2.24.42 1.94 0 3.58-.65 4.92-1.94 1.21-1.16 1.82-2.56 1.82-4.2 0-1.2-.34-2.18-1.01-2.92-.67-.74-1.56-1.17-2.68-1.29l-.17-.01c.28-.51.41-1.04.41-1.58 0-.56-.14-1-.41-1.32-.27-.32-.62-.51-1.05-.56zm.54 2.17c.26.04.47.19.6.45.14.27.21.57.21.91 0 .72-.16 1.29-.47 1.7-.41-.08-.89-.12-1.44-.12-.65 0-1.28.08-1.89.24-.14-.32-.21-.67-.21-1.07 0-.67.17-1.24.51-1.7.34-.45.79-.72 1.35-.81.3-.05.63-.07 1-.07.11 0 .24.16.34.47zM8.37 6.38c1.1 0 1.95.35 2.54 1.05.59.7.88 1.61.88 2.73 0 .63-.12 1.19-.35 1.68.54-.39 1.04-.85 1.49-1.38.78-.94 1.17-1.93 1.17-2.98 0-.45-.07-.88-.22-1.3.17-.1.36-.18.56-.25.55-.19 1.2-.29 1.93-.29.78 0 1.47.14 2.06.43.59.28 1.05.69 1.38 1.21.33.52.5 1.12.5 1.79 0 1.34-.47 2.47-1.41 3.4-.94.93-2.27 1.4-3.99 1.4-.87 0-1.6-.12-2.18-.37-.59-.25-1.06-.6-1.42-1.06l-.1.1c-.8.81-1.86 1.21-3.18 1.21-.76 0-1.44-.18-2.05-.54-.61-.36-1.09-.86-1.45-1.5-.36-.65-.54-1.36-.54-2.15 0-1.21.36-2.3 1.09-3.29.73-.98 1.66-1.48 2.8-1.48zm-4.4 3.26c-.22.33-.36.7-.41 1.12.46-.13 1.12-.21 1.96-.22l.8-.01c.16 0 .35.01.57.02-.14-.31-.34-.57-.6-.79-.26-.22-.6-.33-1.02-.33-.51 0-.95.21-1.3.2z"/>
</svg>
