<svg xmlns="http://www.w3.org/2000/svg" viewBox="0 0 24 24" fill="currentColor">
  <path d="M17.37 10.18l-1.83-1.03 1.02-.9.36.08 1.35 1.35-.9.5zm1.57-.03l.95-.53.46.46-.37.93-.58-.58-.46-.28zm-4.72-2.77l-.32-1.48.25-.13 2.02 2.02-.23.08-1.72-.49zm1.01 2.14l2.12 1.2.15-.17-.56-1.42-.46-.28-1.01.89-.24-.22zm1.5-4.35L15.11 4l-.56.14-.18.56 1.31 1.29.32-.06.73-.76zM8.62 5.55l.24.1 1.39 1.35.13-.2-.73-1.68-.35-.07-.68.5zm.74 2.64l-.44 1.07.54.47 1.63-.92-.08-.21-1.65-.41zM6.76 6.84l-.63.3.8 1.98.37.04.5-.64-.34-.8-.7-.88zm-.05 4.62l.55-.9-.34-.31-1.66.93.05.3 1.4-.02zm-.72 1.49l-.84.5-.56-.56.34-.72.22-.22 1.14-.02-.3 1.02zm2.79-2.37l-.55-.48-1.93 1.09-.04.37.79.79h.56l1.17-1.77zM9.18 12l-1.27 1.9.08.27 1.55.04.42-.39-.53-1.59-.25-.23zm-.18 3.21l-.4.45-1.75.47-.18-.07-.94-.94.13-.23 2-.2.98.37.16.15zm-3.82-.75l.92.92-.18.31-2.09-.11-.34-.72.63-.63 1.06.23zm7.24.75l.41.51-.82.82-.87-.13-.79-.79.33-.47 1.74.06zm-1.97 2.08l-.47.3-.9-.9.07-.37.73-.1.65.4.23.5-.31.17zm4.25-1.83l.74-.19-.87-.87h-.35l-.48.6.71.31.25.15zm-.21 1.5l-.57-.22-.54.5.22.22h.82l.33-.33-.26-.17zm1.66-.52l.58.28-.23.57-.5-.01-.44-.44.59-.4zm-6.38 3.54l.25.25-.29.29h-.8l.32-.32.52-.22zm-2.76-.91l.56-.19.66.66-.22.22h-.98l-.37-.37.35-.32zm.24 1.51l.67-.24.5.5-.3.3h-.73l-.37-.37.23-.19zm2.57 1.4l.67-.29.97.97-.5.5H9.5l.32-.51v-.67zm-1.8-.46l-.32.41.61.61h.5l.32-.32-.5-.5-.61-.2zm8.88-10.8l.56.04.8.8-.2.58-.5.14-.9-.9.24-.66zm.87 5.39l.41.17-.3.6-.62-.25.51-.52zm2.81-3.22l.36-.1.48.48-.33.62-.33.05-.42-.43.24-.62zM16.4 6.05l.25.25-1.73.72-.29-.49 1.23-1.02.54.54zm3.82 4.61l.55.22-.18.72-.55.08-.36-.36.54-.66zm-6.7 7.41l.56-.27.55.55-.22.22h-.53l-.55-.31.19-.19zm1.72-1.25l-.53.22-.55-.55h.69l.5.22-.11.11zM4.93 12.52l.17-.23 1.57.08.16.14-.67 1.09-.68-.25-.55-.83zm1.4 4.38l.32-.23 1.21.36.34.73-.14.14-1.74-.68.01-.32zm10.22.25l.17.43-.47.47-.37-.05-.28-.75.3-.24.65.14zm-6.58 3.35l.5.04-.04.59-.73-.26.27-.37zM12 1L.53 6.5v11L12 23l11.47-5.5v-11L12 1z"/>
</svg>
