<svg xmlns="http://www.w3.org/2000/svg" viewBox="0 0 24 24" fill="currentColor">
  <path d="M.113 13.029c.063 1.345.164 2.696.31 4.036.08.78.76 1.378 1.543 1.378h8.074c.49 0 .89-.398.89-.889V13.03H.113zM23.887 10.971H13.03v4.523c0 .491.399.89.889.89h8.074c.783 0 1.463-.6 1.544-1.379.146-1.34.246-2.69.31-4.036l.04.002zM10.97.113c-1.345.063-2.696.164-4.036.31-.78.08-1.378.76-1.378 1.543v8.074c0 .49.398.89.889.89h4.524V.113zM13.029 23.887c1.345-.063 2.696-.164 4.036-.31.78-.08 1.378-.76 1.378-1.543V13.96a.891.891 0 0 0-.889-.889h-4.524l-.001 10.816z"/>
</svg>
